<svg xmlns="http://www.w3.org/2000/svg" viewBox="0 0 162.52 51"><defs><style>.cls-1{fill:#f3c14a;}</style></defs><title>sasvn</title><g id="Layer_2" data-name="Layer 2"><g id="Layer_1-2" data-name="Layer 1"><path class="cls-1" d="M60.87,34.17l1.4-2.59A12.86,12.86,0,0,0,69.89,34c3.47,0,5.2-.91,5.2-2.71a1.74,1.74,0,0,0-1.17-1.66,14.16,14.16,0,0,0-4.21-.75q-4.42-.36-6.22-1.55a4.23,4.23,0,0,1-1.81-3.81,4.76,4.76,0,0,1,2.13-4.13,10.12,10.12,0,0,1,5.92-1.5,13,13,0,0,1,7.65,2.21l-1.29,2.53a10.67,10.67,0,0,0-6.38-1.88,7.26,7.26,0,0,0-3.47.69A2.15,2.15,0,0,0,65,23.34,1.7,1.7,0,0,0,66.15,25a14.07,14.07,0,0,0,4.2.75q4.43.35,6.24,1.55a4.21,4.21,0,0,1,1.81,3.8,4.8,4.8,0,0,1-2.18,4.25,11.29,11.29,0,0,1-6.3,1.47A15,15,0,0,1,60.87,34.17Z"/><path class="cls-1" d="M95.14,32.09H85.91l-2,4.39H80.53l8.41-18.32h3.32l8.39,18.32H97.1Zm-8-2.75h6.78l-3.39-7.81Z"/><path class="cls-1" d="M102.73,34.17l1.4-2.59A12.86,12.86,0,0,0,111.75,34c3.47,0,5.2-.91,5.2-2.71a1.74,1.74,0,0,0-1.17-1.66,14.16,14.16,0,0,0-4.21-.75q-4.42-.36-6.22-1.55a4.23,4.23,0,0,1-1.81-3.81,4.76,4.76,0,0,1,2.13-4.13,10.12,10.12,0,0,1,5.92-1.5,13,13,0,0,1,7.65,2.21L118,22.58a10.67,10.67,0,0,0-6.38-1.88,7.26,7.26,0,0,0-3.47.69,2.16,2.16,0,0,0-1.26,1.95A1.71,1.71,0,0,0,108,25a14.07,14.07,0,0,0,4.2.75q4.42.35,6.24,1.55a4.21,4.21,0,0,1,1.81,3.8,4.8,4.8,0,0,1-2.18,4.25,11.29,11.29,0,0,1-6.3,1.47A15,15,0,0,1,102.73,34.17Z"/><path class="cls-1" d="M141.73,18.16l-8,18.32h-3.34l-8-18.32h3.55l6.23,14.6,6.22-14.6Z"/><path class="cls-1" d="M162.52,18.16V36.48h-3L148.22,21.83V36.48h-3.13V18.16h4.1L159.4,31.45V18.16Z"/><path class="cls-1" d="M20.83,51,0,30.16l7.69-7.68L26.45,41.24,30,37.69,5.62,13.31,18.92,0l5.62,5.62L30.16,0,51,20.83l-7.69,7.69L24.54,9.75,21,13.31,45.38,37.69,32.07,51l-5.62-5.62ZM4.13,30.16l16.7,16.7,3.55-3.55L7.69,26.61ZM28.52,43.31l3.55,3.55,9.17-9.17L16.86,13.31l5.62-5.62L18.92,4.13,9.75,13.31,34.14,37.69ZM26.61,7.69l16.7,16.69,3.55-3.55L30.16,4.13Z"/></g></g></svg>