<svg xmlns="http://www.w3.org/2000/svg" x="0px" y="0px" width="100%" viewBox="85.3 93.999 250 275.5">

    <path fill="#FFF" d="M135.645 127.286H283.47V322.78H135.645z" />
    <path fill="#36404A" d="M296.25 128.95c0-8.322-6.776-15.098-15.157-15.038h-27.818c-.297-7.014-6.062-12.542-13.136-12.482h-5.65c-2.08-4.458-6.6-7.49-11.77-7.43l-24.43.12c-5.11.058-9.51 3.03-11.59 7.37h-5.83c-6.96.06-12.6 5.586-12.9 12.48h-24.6l-3.87.06c-8.32 0-15.1 6.777-15.04 15.158l.536 189.73c0 8.32 6.776 15.097 15.157 15.037l141.64-.18c8.32 0 15.1-6.774 15.04-15.155l-.6-189.67zm-86.485-29.006c3.804 0 6.954 3.09 6.954 6.955 0 3.86-3.1 6.95-6.96 6.95-3.87 0-6.96-3.09-6.96-6.96.06-3.87 3.15-6.96 6.95-6.96zm-69.722 218.913l-.535-189.73 28.412-.06-.12.596v.594c.06 7.192 5.945 13.017 13.196 12.958l58.666-.12c7.192-.06 12.304-5.943 12.304-13.194v-1.01l28.472-.06.832 189.73-141.227.3z" />
    <path fill="#1B79BE" d="M266.886 170.26v-.773c0-1.664-1.368-3.03-3.032-3.03l-108.594.06c-1.665 0-3.03 1.366-3.03 3.03l-.06 1.724c0 1.67 1.366 3.04 3.03 3.04l108.594-.06c1.665 0 3.032-1.36 3.032-3.03v-.77l.06-.18zm0 15.513V185c0-1.664-1.368-3.03-3.032-3.03l-108.594.06c-1.665 0-3.03 1.367-3.03 3.03l-.06 1.725c0 1.664 1.366 3.032 3.03 3.032l108.594-.06c1.665 0 3.032-1.368 3.032-3.032v-.772l.06-.18zm0 15.574v-.773c0-1.664-1.368-3.03-3.032-3.03l-108.594.058c-1.665 0-3.03 1.367-3.03 3.03l-.06 1.725c0 1.665 1.366 3.032 3.03 3.032l108.594-.06c1.665 0 3.032-1.37 3.032-3.04v-.78l.06-.178zm-72.576 17.177v-.772c0-1.665-1.366-3.03-3.03-3.03l-36.02.06c-1.666 0-3.032 1.366-3.032 3.03l-.06 1.724c0 1.664 1.367 3.03 3.03 3.03l36.02-.06c1.665 0 3.032-1.366 3.032-3.03v-.773l.06-.18zm72.576 32.396v-.773c0-1.664-1.368-3.032-3.032-3.032l-108.594.06c-1.665 0-3.03 1.367-3.03 3.03l-.06 1.726c0 1.67 1.366 3.04 3.03 3.04l108.594-.06c1.665 0 3.032-1.36 3.032-3.03v-.77l.06-.18zm0 15.512v-.772c0-1.664-1.368-3.03-3.032-3.03l-108.594.06c-1.665 0-3.03 1.366-3.03 3.03l-.06 1.724c0 1.664 1.366 3.032 3.03 3.032l108.594-.06c1.665 0 3.032-1.367 3.032-3.03v-.773l.06-.18zm-72.576 15.573v-.772c0-1.664-1.366-3.03-3.03-3.03l-36.02.06c-1.666 0-3.032 1.366-3.032 3.03l-.06 1.724c0 1.664 1.367 3.03 3.03 3.03l36.02-.06c1.665 0 3.032-1.365 3.032-3.03v-.772l.06-.18z" />
    <path fill="#EFEFEF" d="M240.08 104.045h-7.787c-.178-2.26-1.13-6.776-5.29-6.895h-32.216c-4.34 0-5.29 4.577-5.528 6.895h-8.33c-10.7 0-10.23 10.46-10.23 10.46h79.23c0-.058.42-10.222-9.866-10.46zm-29.423 8.976c-3.507 0-6.36-2.79-6.36-6.3 0-3.44 2.853-6.3 6.36-6.3s6.36 2.8 6.36 6.3-2.853 6.3-6.36 6.3z" />
    <circle fill="none" stroke="#000" stroke-width="3" stroke-miterlimit="10" cx="210.657" cy="106.423" r="6.301" />
    <ellipse fill="#F16852" cx="269.561" cy="299.718" rx="52.604" ry="52.604" />
    <path fill="#FFF" d="M245.37 323.85c6.657 6.658 15.394 9.986 24.19 9.986 8.738 0 17.476-3.328 24.192-9.985 13.373-13.31 13.373-35.01 0-48.32-6.657-6.65-15.396-9.98-24.19-9.98-8.74 0-17.477 3.33-24.193 9.99-13.32 13.376-13.32 35.01 0 48.327zm44.875-9.154c-.178-.297-.356-.653-.594-.892l-34.17-34.177c-.29-.298-.59-.417-.95-.654 4.34-3.15 9.57-4.874 15.04-4.874 6.84 0 13.26 2.67 18.13 7.48 8.98 8.97 9.81 23.06 2.56 33.11zm-41.428-29.957c.178.29.356.65.594.89l34.18 34.18c.3.29.6.47.95.65-4.34 3.15-9.57 4.87-15.03 4.87-6.83 0-13.25-2.68-18.13-7.49-8.97-9.04-9.74-23.12-2.55-33.11z" />
</svg>