<svg viewBox="0 0 512 512" xmlns="http://www.w3.org/2000/svg"><g id="Fill_out_line" data-name="Fill out line"><path d="m264 336h176v40h-176z" fill="#e6e6e6"/><path d="m280 312h208v32h-208z" fill="#ccc"/><path d="m248 312h32v32h-32z" fill="#b3b3b3"/><path d="m280 112h192v200h-192z" fill="#fc7"/><path d="m120 112h160v200h-160z" fill="#fcb73f"/><path d="m272 408h-32c-13.25483 0-24-14.32689-24-32s10.74517-32 24-32h32z" fill="#4d4d4d"/><ellipse cx="272" cy="376" fill="#808080" rx="24" ry="32"/><path d="m224 408h-32c-13.25483 0-24-14.32689-24-32s10.74517-32 24-32h32z" fill="#4d4d4d"/><path d="m464 408h-32c-13.25483 0-24-14.32689-24-32s10.74517-32 24-32h32z" fill="#4d4d4d"/><ellipse cx="464" cy="376" fill="#808080" rx="24" ry="32"/><path d="m416 408h-32c-13.25483 0-24-14.32689-24-32s10.74517-32 24-32h32z" fill="#4d4d4d"/><ellipse cx="416" cy="376" fill="#808080" rx="24" ry="32"/><path d="m112 408h-32c-13.25483 0-24-14.32689-24-32s10.74517-32 24-32h32z" fill="#808080"/><ellipse cx="112" cy="376" fill="#4d4d4d" rx="24" ry="32"/><path d="m24 184h128v192h-128z" fill="#e6e6e6"/><path d="m152 184h96v192h-96z" fill="#ccc"/><path d="m24 216h128v64h-128z" fill="#65dcff"/><path d="m152 216h64v24l-64 40z" fill="#57c1ff"/><path d="m48 184a104.69426 104.69426 0 0 1 63.22317-39.84461l.77683-.15539h136v40z" fill="#ff6f35"/><path d="m184 184a104.69426 104.69426 0 0 1 63.22317-39.84461l.77683-.15539v40z" fill="#e05e1d"/><path d="m24 312h48v32h-48z" fill="#f2e368"/><path d="m104 312h48v32h-48z" fill="#f2e368"/><ellipse cx="224" cy="376" fill="#808080" rx="24" ry="32"/><path d="m496 344v-32a8.00008 8.00008 0 0 0 -8-8h-8v-192a8.00008 8.00008 0 0 0 -8-8h-352a8.00008 8.00008 0 0 0 -8 8v24a7.97435 7.97435 0 0 0 -1.56787.15527l-.77783.15528a112.52881 112.52881 0 0 0 -65.55402 39.68945h-20.10028a8.00008 8.00008 0 0 0 -8 8v192a8.00008 8.00008 0 0 0 8 8h24.644c2.97319 18.23535 15.90226 32 31.356 32h32c15.45374 0 28.38281-13.76465 31.356-32h17.288c2.97321 18.23535 15.90228 32 31.356 32h32c9.55078 0 18.13171-5.26367 24-13.585 5.86829 8.32133 14.44922 13.585 24 13.585 15.45374 0 28.38281-13.76465 31.356-32h49.288c2.97315 18.23535 15.90222 32 31.356 32h32c9.55078 0 18.13171-5.26367 24-13.585 5.86829 8.32133 14.44922 13.585 24 13.585 17.645 0 32-17.94434 32-40a46.59238 46.59238 0 0 0 -6.5083-24.144 7.99885 7.99885 0 0 0 6.5083-7.856zm-208-224h176v184h-16v-168h-16v168h-16v-168h-16v168h-16v-168h-16v168h-16v-168h-16v168h-16v-168h-16v168h-16zm-256 200h32v16h-32zm48 80c-6.81329 0-12.79395-6.78418-15.04626-16h15.69026a45.13962 45.13962 0 0 0 5.77356 16zm32 0c-6.81329 0-12.79395-6.78418-15.04626-16h30.09252c-2.25226 9.21582-8.23297 16-15.04626 16zm32-64h-32v-16h32zm0-32h-40a8.00008 8.00008 0 0 0 -8 8v32a8.00008 8.00008 0 0 0 8 8h40v16h-112v-16h40a8.00008 8.00008 0 0 0 8-8v-32a8.00008 8.00008 0 0 0 -8-8h-40v-16h112zm0-32h-112v-48h112zm0-64h-112v-16h112zm-78.07745-32a96.54662 96.54662 0 0 1 46.86845-24h94.04962a112.59451 112.59451 0 0 0 -26.74036 24zm94.07745 48h48v11.56641l-48 29.99951zm32 176c-6.81329 0-12.79395-6.78418-15.04626-16h15.69026a45.13962 45.13962 0 0 0 5.77356 16zm32 0c-8.67285 0-16-10.99023-16-24s7.32715-24 16-24 16 10.99023 16 24-7.32715 24-16 24zm16-58.61865a27.11312 27.11312 0 0 0 -16-5.38135c-15.45374 0-28.38281 13.76465-31.356 32h-32.644v-83.56543l60.24023-37.65039a7.99993 7.99993 0 0 0 3.75977-6.78418v-24a8.00008 8.00008 0 0 0 -8-8h-56v-16h80zm0-165.38135h-38.06378a96.4821 96.4821 0 0 1 38.06378-21.81055zm13.07227-38.18652a7.99787 7.99787 0 0 0 -5.07227-1.80518v-.0083h-120v-16h144v184h-16v-160a7.99963 7.99963 0 0 0 -2.92773-6.18652zm18.92773 182.18652v16h-16v-16zm0 80c-8.67285 0-16-10.99023-16-24s7.32715-24 16-24 16 10.99023 16 24-7.32715 24-16 24zm80-32h-48.644a45.142 45.142 0 0 0 -5.77344-16h54.41744zm38.41748 32h-6.41748c-8.67285 0-16-10.99023-16-24s7.32715-24 16-24h6.41748a48.08617 48.08617 0 0 0 0 48zm25.58252 0c-8.67285 0-16-10.99023-16-24s7.32715-24 16-24 16 10.99023 16 24-7.32715 24-16 24zm48 0c-8.67285 0-16-10.99023-16-24s7.32715-24 16-24 16 10.99023 16 24-7.32715 24-16 24zm16-64h-192v-16h192z"/></g></svg>